<svg width="32" height="33" viewBox="0 0 32 33" fill="none" xmlns="http://www.w3.org/2000/svg">
<path d="M28.6667 21.1667C29.04 21.1667 29.3334 21.46 29.3334 21.8333V23.1667C29.3334 25.38 27.5467 27.1667 25.3334 27.1667C25.3334 24.9667 23.5334 23.1667 21.3334 23.1667C19.1334 23.1667 17.3334 24.9667 17.3334 27.1667H14.6667C14.6667 24.9667 12.8667 23.1667 10.6667 23.1667C8.46669 23.1667 6.66669 24.9667 6.66669 27.1667C4.45335 27.1667 2.66669 25.38 2.66669 23.1667V20.5C2.66669 19.7667 3.26669 19.1667 4.00002 19.1667H16.6667C18.5067 19.1667 20 17.6733 20 15.8333V8.5C20 7.76666 20.6 7.16666 21.3334 7.16666H22.4534C23.4134 7.16666 24.2934 7.68666 24.7734 8.51333L25.6267 10.0067C25.7467 10.22 25.5867 10.5 25.3334 10.5C23.4934 10.5 22 11.9933 22 13.8333V17.8333C22 19.6733 23.4934 21.1667 25.3334 21.1667H28.6667Z" fill="url(#paint0_linear_19_490)"/>
<path d="M10.6667 29.8333C12.1394 29.8333 13.3333 28.6394 13.3333 27.1667C13.3333 25.6939 12.1394 24.5 10.6667 24.5C9.19391 24.5 8 25.6939 8 27.1667C8 28.6394 9.19391 29.8333 10.6667 29.8333Z" fill="url(#paint1_linear_19_490)"/>
<path d="M21.3334 29.8333C22.8061 29.8333 24 28.6394 24 27.1667C24 25.6939 22.8061 24.5 21.3334 24.5C19.8606 24.5 18.6667 25.6939 18.6667 27.1667C18.6667 28.6394 19.8606 29.8333 21.3334 29.8333Z" fill="url(#paint2_linear_19_490)"/>
<path d="M29.3333 17.2067V19.1667H25.3333C24.6 19.1667 24 18.5667 24 17.8333V13.8333C24 13.1 24.6 12.5 25.3333 12.5H27.0533L28.9867 15.8867C29.2133 16.2867 29.3333 16.74 29.3333 17.2067Z" fill="url(#paint3_linear_19_490)"/>
<path d="M17.44 3.16666H7.58663C5.19996 3.16666 3.19996 4.87333 2.75996 7.14H8.58663C9.09329 7.14 9.49329 7.55333 9.49329 8.06C9.49329 8.56666 9.09329 8.96666 8.58663 8.96666H2.66663V10.8067H6.13329C6.63996 10.8067 7.05329 11.22 7.05329 11.7267C7.05329 12.2333 6.63996 12.6333 6.13329 12.6333H2.66663V14.4733H3.69329C4.19996 14.4733 4.61329 14.8867 4.61329 15.3933C4.61329 15.9 4.19996 16.3 3.69329 16.3H2.66663V16.6067C2.66663 17.34 3.26663 17.94 3.99996 17.94H16.2C17.56 17.94 18.6666 16.8333 18.6666 15.4733V4.39333C18.6666 3.71333 18.12 3.16666 17.44 3.16666Z" fill="url(#paint4_linear_19_490)"/>
<path d="M2.75998 7.14H2.55998H1.25331C0.746646 7.14 0.333313 7.55333 0.333313 8.06C0.333313 8.56667 0.746646 8.96667 1.25331 8.96667H2.46665H2.66665V8.08667C2.66665 7.76667 2.70665 7.44667 2.75998 7.14Z" fill="url(#paint5_linear_19_490)"/>
<path d="M2.46665 10.8067H1.25331C0.746646 10.8067 0.333313 11.22 0.333313 11.7267C0.333313 12.2333 0.746646 12.6333 1.25331 12.6333H2.46665H2.66665V10.8067H2.46665Z" fill="url(#paint6_linear_19_490)"/>
<path d="M2.46665 14.4733H1.25331C0.746646 14.4733 0.333313 14.8867 0.333313 15.3933C0.333313 15.9 0.746646 16.3 1.25331 16.3H2.46665H2.66665V14.4733H2.46665Z" fill="url(#paint7_linear_19_490)"/>
<defs>
<linearGradient id="paint0_linear_19_490" x1="16" y1="7.16666" x2="16" y2="27.1667" gradientUnits="userSpaceOnUse">
<stop stop-color="#35F9D1"/>
<stop offset="1" stop-color="#2BD3B1"/>
</linearGradient>
<linearGradient id="paint1_linear_19_490" x1="10.6667" y1="24.5" x2="10.6667" y2="29.8333" gradientUnits="userSpaceOnUse">
<stop stop-color="#35F9D1"/>
<stop offset="1" stop-color="#2BD3B1"/>
</linearGradient>
<linearGradient id="paint2_linear_19_490" x1="21.3334" y1="24.5" x2="21.3334" y2="29.8333" gradientUnits="userSpaceOnUse">
<stop stop-color="#35F9D1"/>
<stop offset="1" stop-color="#2BD3B1"/>
</linearGradient>
<linearGradient id="paint3_linear_19_490" x1="26.6667" y1="12.5" x2="26.6667" y2="19.1667" gradientUnits="userSpaceOnUse">
<stop stop-color="#35F9D1"/>
<stop offset="1" stop-color="#2BD3B1"/>
</linearGradient>
<linearGradient id="paint4_linear_19_490" x1="10.6666" y1="3.16666" x2="10.6666" y2="17.94" gradientUnits="userSpaceOnUse">
<stop stop-color="#35F9D1"/>
<stop offset="1" stop-color="#2BD3B1"/>
</linearGradient>
<linearGradient id="paint5_linear_19_490" x1="1.54665" y1="7.14" x2="1.54665" y2="8.96667" gradientUnits="userSpaceOnUse">
<stop stop-color="#35F9D1"/>
<stop offset="1" stop-color="#2BD3B1"/>
</linearGradient>
<linearGradient id="paint6_linear_19_490" x1="1.49998" y1="10.8067" x2="1.49998" y2="12.6333" gradientUnits="userSpaceOnUse">
<stop stop-color="#35F9D1"/>
<stop offset="1" stop-color="#2BD3B1"/>
</linearGradient>
<linearGradient id="paint7_linear_19_490" x1="1.49998" y1="14.4733" x2="1.49998" y2="16.3" gradientUnits="userSpaceOnUse">
<stop stop-color="#35F9D1"/>
<stop offset="1" stop-color="#2BD3B1"/>
</linearGradient>
</defs>
</svg>
