<svg width="32" height="33" viewBox="0 0 32 33" fill="none" xmlns="http://www.w3.org/2000/svg">
<path d="M23.4666 7.58L15.9333 3.52667C15.1333 3.1 14.1866 3.1 13.3866 3.52667L5.8666 7.58C5.31993 7.88666 4.97327 8.47333 4.97327 9.11333C4.97327 9.76666 5.3066 10.3533 5.8666 10.6467L13.3999 14.7C13.7999 14.9133 14.2399 15.02 14.6666 15.02C15.0933 15.02 15.5466 14.9133 15.9333 14.7L23.4666 10.6467C24.0133 10.3533 24.3599 9.76666 24.3599 9.11333C24.3599 8.47333 24.0133 7.88666 23.4666 7.58Z" fill="url(#paint0_linear_19_198)"/>
<path d="M12.16 16.1133L5.15996 12.62C4.61329 12.34 3.99996 12.38 3.47996 12.6867C2.97329 13.0067 2.66663 13.5533 2.66663 14.1533V20.7667C2.66663 21.9133 3.30663 22.94 4.33329 23.46L11.3333 26.9533C11.5733 27.0733 11.84 27.14 12.1066 27.14C12.4133 27.14 12.7333 27.0467 13.0133 26.8867C13.52 26.5667 13.8266 26.02 13.8266 25.42V18.8067C13.8133 17.66 13.1733 16.6333 12.16 16.1133Z" fill="url(#paint1_linear_19_198)"/>
<path d="M26.6667 14.1533V17.4333C26.0267 17.2467 25.3467 17.1667 24.6667 17.1667C22.8534 17.1667 21.08 17.7933 19.68 18.9133C17.76 20.42 16.6667 22.7 16.6667 25.1667C16.6667 25.82 16.7467 26.4733 16.92 27.1C16.72 27.0733 16.52 26.9933 16.3334 26.8733C15.8267 26.5667 15.52 26.02 15.52 25.42V18.8067C15.52 17.66 16.16 16.6333 17.1734 16.1133L24.1734 12.62C24.72 12.34 25.3334 12.38 25.8534 12.6867C26.36 13.0067 26.6667 13.5533 26.6667 14.1533Z" fill="url(#paint2_linear_19_198)"/>
<path d="M29.3066 21.3667C28.2133 20.02 26.5466 19.1667 24.6666 19.1667C23.2533 19.1667 21.9466 19.66 20.92 20.4867C19.5333 21.58 18.6666 23.2733 18.6666 25.1667C18.6666 27.0467 19.52 28.7133 20.8666 29.8067C21.8933 30.66 23.2266 31.1667 24.6666 31.1667C26.1866 31.1667 27.56 30.5933 28.6266 29.6733C29.8666 28.5667 30.6666 26.9667 30.6666 25.1667C30.6666 23.7267 30.16 22.3933 29.3066 21.3667ZM26.04 25.54C26.04 25.8867 25.8533 26.22 25.56 26.3933L23.68 27.5133C23.52 27.6067 23.3466 27.66 23.16 27.66C22.8266 27.66 22.4933 27.4867 22.3066 27.18C22.0266 26.7 22.1733 26.0867 22.6533 25.8067L24.04 24.98V23.3C24.04 22.7533 24.4933 22.3 25.04 22.3C25.5866 22.3 26.04 22.7533 26.04 23.3V25.54Z" fill="url(#paint3_linear_19_198)"/>
<defs>
<linearGradient id="paint0_linear_19_198" x1="14.6666" y1="3.20667" x2="14.6666" y2="15.02" gradientUnits="userSpaceOnUse">
<stop stop-color="#35F9D1"/>
<stop offset="1" stop-color="#2BD3B1"/>
</linearGradient>
<linearGradient id="paint1_linear_19_198" x1="8.24663" y1="12.4315" x2="8.24663" y2="27.14" gradientUnits="userSpaceOnUse">
<stop stop-color="#35F9D1"/>
<stop offset="1" stop-color="#2BD3B1"/>
</linearGradient>
<linearGradient id="paint2_linear_19_198" x1="21.0934" y1="12.4315" x2="21.0934" y2="27.1" gradientUnits="userSpaceOnUse">
<stop stop-color="#35F9D1"/>
<stop offset="1" stop-color="#2BD3B1"/>
</linearGradient>
<linearGradient id="paint3_linear_19_198" x1="24.6666" y1="19.1667" x2="24.6666" y2="31.1667" gradientUnits="userSpaceOnUse">
<stop stop-color="#35F9D1"/>
<stop offset="1" stop-color="#2BD3B1"/>
</linearGradient>
</defs>
</svg>
