<svg width="16" height="16" viewBox="0 0 16 16" fill="none" xmlns="http://www.w3.org/2000/svg">
<path d="M6.59926 12.5924L6.59929 12.5924L6.59562 12.5876C6.48112 12.4394 6.32602 12.3298 6.18192 12.2578C6.0387 12.1862 5.85634 12.1267 5.66665 12.1267H4.66665C3.10083 12.1267 1.83331 10.8619 1.83331 9.30668V8.64001V4.65334C1.83331 3.09811 3.10083 1.83334 4.66665 1.83334H11.3333C12.8991 1.83334 14.1666 3.09811 14.1666 4.65334V9.30668C14.1666 10.8619 12.8991 12.1267 11.3333 12.1267H10.3333C9.96803 12.1267 9.62168 12.3016 9.40189 12.5908L9.4007 12.5924L8.4007 13.919L8.39998 13.92C8.26054 14.1059 8.11084 14.16 7.99998 14.16C7.88912 14.16 7.73942 14.1059 7.59998 13.92L7.59926 13.919L6.59926 12.5924ZM4.16665 7.33334C4.16665 7.97288 4.68058 8.50001 5.33331 8.50001C5.98605 8.50001 6.49998 7.97288 6.49998 7.33334C6.49998 6.69053 5.97612 6.16668 5.33331 6.16668C4.6905 6.16668 4.16665 6.69054 4.16665 7.33334ZM6.83331 7.33334C6.83331 7.97288 7.34725 8.50001 7.99998 8.50001C8.65271 8.50001 9.16665 7.97288 9.16665 7.33334C9.16665 6.69054 8.64279 6.16668 7.99998 6.16668C7.35717 6.16668 6.83331 6.69053 6.83331 7.33334ZM9.49998 7.33334C9.49998 7.97288 10.0139 8.50001 10.6666 8.50001C11.3194 8.50001 11.8333 7.97288 11.8333 7.33334C11.8333 6.69054 11.3095 6.16668 10.6666 6.16668C10.0238 6.16668 9.49998 6.69053 9.49998 7.33334Z" fill="#094E40" stroke="#094E40"/>
</svg>
