<svg width="16" height="16" viewBox="0 0 16 16" fill="none" xmlns="http://www.w3.org/2000/svg">
<path d="M1.84667 6.66667C1.56 6.66667 1.33333 6.44 1.33333 6.15334V4.61334C1.33333 2.80667 2.80667 1.33334 4.61333 1.33334H6.15333C6.44 1.33334 6.66667 1.56 6.66667 1.84667C6.66667 2.13334 6.44 2.36 6.15333 2.36H4.61333C3.36667 2.36 2.36 3.37334 2.36 4.61334V6.15334C2.36 6.44 2.12667 6.66667 1.84667 6.66667Z" fill="#07362D"/>
<path d="M14.1533 6.66667C13.8733 6.66667 13.64 6.44 13.64 6.15334V4.61334C13.64 3.36667 12.6267 2.36 11.3867 2.36H9.84667C9.56 2.36 9.33333 2.12667 9.33333 1.84667C9.33333 1.56667 9.56 1.33334 9.84667 1.33334H11.3867C13.1933 1.33334 14.6667 2.80667 14.6667 4.61334V6.15334C14.6667 6.44 14.44 6.66667 14.1533 6.66667Z" fill="#07362D"/>
<path d="M11.3867 14.6667H10.46C10.18 14.6667 9.94667 14.44 9.94667 14.1533C9.94667 13.8733 10.1733 13.64 10.46 13.64H11.3867C12.6333 13.64 13.64 12.6267 13.64 11.3867V10.4667C13.64 10.1867 13.8667 9.95333 14.1533 9.95333C14.4333 9.95333 14.6667 10.18 14.6667 10.4667V11.3867C14.6667 13.1933 13.1933 14.6667 11.3867 14.6667Z" fill="#07362D"/>
<path d="M6.15333 14.6667H4.61333C2.80667 14.6667 1.33333 13.1933 1.33333 11.3867V9.84667C1.33333 9.56 1.56 9.33334 1.84667 9.33334C2.13333 9.33334 2.36 9.56 2.36 9.84667V11.3867C2.36 12.6333 3.37333 13.64 4.61333 13.64H6.15333C6.43333 13.64 6.66667 13.8667 6.66667 14.1533C6.66667 14.44 6.44 14.6667 6.15333 14.6667Z" fill="#07362D"/>
<path d="M12.3067 7.48666H11.4H4.6H3.69333C3.40667 7.48666 3.18 7.72 3.18 8C3.18 8.28 3.40667 8.51333 3.69333 8.51333H4.6H11.4H12.3067C12.5933 8.51333 12.82 8.28 12.82 8C12.82 7.72 12.5933 7.48666 12.3067 7.48666Z" fill="#07362D"/>
<path d="M4.6 9.29334V9.51334C4.6 10.62 5.49333 11.5133 6.6 11.5133H9.4C10.5067 11.5133 11.4 10.62 11.4 9.51334V9.29334C11.4 9.21334 11.34 9.15334 11.26 9.15334H4.74C4.66 9.15334 4.6 9.21334 4.6 9.29334Z" fill="#07362D"/>
<path d="M4.6 6.70666V6.48666C4.6 5.38 5.49333 4.48666 6.6 4.48666H9.4C10.5067 4.48666 11.4 5.38 11.4 6.48666V6.70666C11.4 6.78666 11.34 6.84666 11.26 6.84666H4.74C4.66 6.84666 4.6 6.78666 4.6 6.70666Z" fill="#07362D"/>
</svg>
