<svg width="25" height="40" viewBox="0 0 25 40" fill="none" xmlns="http://www.w3.org/2000/svg">
<path d="M9.37999 12.6C8.57999 9.13997 3.36999 9.12997 2.56999 12.6C2.09999 14.63 3.38999 16.35 4.50999 17.42C5.32999 18.19 6.61999 18.19 7.43999 17.42C8.55999 16.35 9.83999 14.63 9.37999 12.6ZM6.00999 14.2C5.45999 14.2 5.00999 13.75 5.00999 13.2C5.00999 12.65 5.44999 12.2 5.99999 12.2H6.00999C6.56999 12.2 7.00999 12.65 7.00999 13.2C7.00999 13.75 6.56999 14.2 6.00999 14.2Z" fill="#094E40"/>
<path d="M22.41 24.6C21.61 21.14 16.38 21.13 15.57 24.6C15.1 26.63 16.39 28.35 17.52 29.42C18.34 30.19 19.64 30.19 20.46 29.42C21.59 28.35 22.88 26.63 22.41 24.6ZM19.03 26.2C18.48 26.2 18.03 25.75 18.03 25.2C18.03 24.65 18.47 24.2 19.02 24.2H19.03C19.58 24.2 20.03 24.65 20.03 25.2C20.03 25.75 19.58 26.2 19.03 26.2Z" fill="#094E40"/>
<path d="M12.4999 27.75H9.81994C8.65994 27.75 7.64994 27.05 7.24994 25.97C6.83994 24.89 7.13994 23.7 8.00994 22.93L15.9999 15.94C16.4799 15.52 16.4899 14.95 16.3499 14.56C16.1999 14.17 15.8199 13.75 15.1799 13.75H12.4999C12.0899 13.75 11.7499 13.41 11.7499 13C11.7499 12.59 12.0899 12.25 12.4999 12.25H15.1799C16.3399 12.25 17.3499 12.95 17.7499 14.03C18.1599 15.11 17.8599 16.3 16.9899 17.07L8.99994 24.06C8.51994 24.48 8.50994 25.05 8.64994 25.44C8.79994 25.83 9.17994 26.25 9.81994 26.25H12.4999C12.9099 26.25 13.2499 26.59 13.2499 27C13.2499 27.41 12.9099 27.75 12.4999 27.75Z" fill="#094E40"/>
</svg>
