<svg width="32" height="33" viewBox="0 0 32 33" fill="none" xmlns="http://www.w3.org/2000/svg">
<path d="M26.9467 10.9267L16.68 16.8733C16.2667 17.1133 15.7467 17.1133 15.32 16.8733L5.05338 10.9267C4.32004 10.5 4.13338 9.5 4.69338 8.87333C5.08004 8.43333 5.52004 8.07333 5.98671 7.82L13.2134 3.82C14.76 2.95333 17.2667 2.95333 18.8134 3.82L26.04 7.82C26.5067 8.07333 26.9467 8.44667 27.3334 8.87333C27.8667 9.5 27.68 10.5 26.9467 10.9267Z" fill="url(#paint0_linear_19_129)"/>
<path d="M15.2401 19.3533V28.4467C15.2401 29.46 14.2134 30.1267 13.3067 29.6867C10.5601 28.34 5.93339 25.82 5.93339 25.82C4.30672 24.9 2.97339 22.58 2.97339 20.6733V13.7933C2.97339 12.74 4.08006 12.0733 4.98672 12.5933L14.5734 18.1533C14.9734 18.4067 15.2401 18.86 15.2401 19.3533Z" fill="url(#paint1_linear_19_129)"/>
<path d="M16.76 19.3533V28.4467C16.76 29.46 17.7867 30.1267 18.6933 29.6867C21.44 28.34 26.0667 25.82 26.0667 25.82C27.6933 24.9 29.0267 22.58 29.0267 20.6733V13.7933C29.0267 12.74 27.92 12.0733 27.0133 12.5933L17.4267 18.1533C17.0267 18.4067 16.76 18.86 16.76 19.3533Z" fill="url(#paint2_linear_19_129)"/>
<defs>
<linearGradient id="paint0_linear_19_129" x1="16.003" y1="3.17" x2="16.003" y2="17.0533" gradientUnits="userSpaceOnUse">
<stop stop-color="#35F9D1"/>
<stop offset="1" stop-color="#2BD3B1"/>
</linearGradient>
<linearGradient id="paint1_linear_19_129" x1="9.10672" y1="12.4129" x2="9.10672" y2="29.8246" gradientUnits="userSpaceOnUse">
<stop stop-color="#35F9D1"/>
<stop offset="1" stop-color="#2BD3B1"/>
</linearGradient>
<linearGradient id="paint2_linear_19_129" x1="22.8933" y1="12.4129" x2="22.8933" y2="29.8246" gradientUnits="userSpaceOnUse">
<stop stop-color="#35F9D1"/>
<stop offset="1" stop-color="#2BD3B1"/>
</linearGradient>
</defs>
</svg>
